# xmcd
#
# Track frame offsets: 
#        150
#        11565
#        21340
#        32405
#        42402
#        51447
#        61985
#        72697
#        83957
#        94482
#        108857
#        119295
#        128442
#        140310
#        151227
#        165087
#        174572
#        186170
#        195365
#        205172
#        215337
#        225242
#        236850
#        246595
#        259532
#
# Disc length: 3556 seconds
#
# Revision: 0
# Processed by: cddbd v1.5.2PL0 Copyright (c) Steve Scherf et al.
# Submitted via: ExactAudioCopy v0.95b4
#
DISCID=540de219
DTITLE=Various Artist - Shreveport Stomp
DYEAR=1994
DGENRE=Blues
TTITLE0=Roy "Boogie Boy" Perkins - Ba Da
TTITLE1=Scatman Patin with Linda Brannon - Red Beans and Rice
TTITLE2=Margaret Lewis - Cheaters Can't Win
TTITLE3=T.V. Slim and His Heartbreakers - Flat Foot Sam
TTITLE4=Sonny "Golden Boy" Williamson - Mailman, Mailman
TTITLE5=L.C. Steel - Come Back Betty
TTITLE6=Linda Brannon - I'm Leaving
TTITLE7=Jimmy Bonin - Bow Wow Puppy Love
TTITLE8=Roy "Boogie Boy" Perkins - Drop Top (Take One)
TTITLE9=Margaret Lewis - Reconsider Me
TTITLE10=Bobby Page - Hippy Ti Yo
TTITLE11=Linda Brannon - Wherever You Are
TTITLE12=Grace Tennessee and the American Spirits - Pow Wow
TTITLE13=Elgie Brown - Let Me Feel It
TTITLE14=Vincent Williams - Girl in the Street
TTITLE15=Scatman Patin - Ginning (Take 1)
TTITLE16=Troy Webb - Baby, Please Forgive Me
TTITLE17=Rocky Robin and the Riff Raffs - What Did You Do Last Night?
TTITLE18=The Run-A-Ways - Night Creature
TTITLE19=Linda Brannon - Anyway You Do
TTITLE20=The Lonesome Drifter - Eager Boy
TTITLE21=Charlotte Hunter - Lonesome Heart
TTITLE22=The Star Marks - El Rancho Grande Rock
TTITLE23=Ernest Walker - Lover's Land
TTITLE24="June Bug" Bailey - Louisiana Twist
EXTD=
EXTT0=
EXTT1=
EXTT2=
EXTT3=
EXTT4=
EXTT5=
EXTT6=
EXTT7=
EXTT8=
EXTT9=
EXTT10=
EXTT11=
EXTT12=
EXTT13=
EXTT14=
EXTT15=
EXTT16=
EXTT17=
EXTT18=
EXTT19=
EXTT20=
EXTT21=
EXTT22=
EXTT23=
EXTT24=
PLAYORDER=
